<?xml version="1.0" encoding="utf-8"?>
<!-- Generator: Adobe Illustrator 24.3.0, SVG Export Plug-In . SVG Version: 6.00 Build 0)  -->
<svg version="1.1" id="Layer_1" xmlns="http://www.w3.org/2000/svg" xmlns:xlink="http://www.w3.org/1999/xlink" x="0px" y="0px"
	 viewBox="0 0 418.02 387.53" style="enable-background:new 0 0 418.02 387.53;" xml:space="preserve">
<style type="text/css">
	.st0{opacity:0.15;}
</style>
<g class="st0">
	<g>
		<path d="M418.02,293.79c0,15.19-1.36,28.76-4.09,40.75c-2.72,11.99-6.97,21.83-12.75,29.49c-5.93,7.84-13.55,13.76-22.84,17.75
			c-9.31,4-20.78,5.99-34.41,5.99c-13.39,0-24.83-2.02-34.29-6.05c-9.46-4.03-17.11-10.02-22.97-17.93
			c-5.93-7.91-10.22-17.73-12.86-29.48c-2.65-11.77-3.97-25.23-3.97-40.4c0-15.67,1.35-29.27,4.09-40.82
			c2.72-11.55,7.05-21.32,12.99-29.31c5.92-7.92,13.62-13.85,23.09-17.81c9.45-3.96,20.77-5.94,33.92-5.94
			c13.71,0,25.22,2.04,34.52,6.11c9.3,4.08,16.92,10.16,22.85,18.23c5.87,7.91,10.1,17.66,12.75,29.25
			C416.7,265.22,418.02,278.61,418.02,293.79z M371.48,293.79c0-21.82-2.12-37.34-6.38-46.59c-4.24-9.25-11.31-13.88-21.17-13.88
			c-9.86,0-16.92,4.63-21.18,13.88c-4.24,9.25-6.37,24.86-6.37,46.83c0,21.4,2.17,36.85,6.5,46.29
			c4.34,9.45,11.35,14.17,21.05,14.17c9.71,0,16.72-4.72,21.05-14.17C369.32,330.88,371.48,315.36,371.48,293.79z"/>
		<path d="M263.22,293.79c0,15.19-1.37,28.76-4.08,40.75c-2.72,11.99-6.99,21.83-12.75,29.49c-5.95,7.84-13.56,13.76-22.86,17.75
			c-9.3,4-20.76,5.99-34.39,5.99c-13.39,0-24.84-2.02-34.29-6.05c-9.46-4.03-17.11-10.02-22.97-17.93
			c-5.93-7.91-10.22-17.73-12.88-29.48c-2.65-11.77-3.97-25.23-3.97-40.4c0-15.67,1.37-29.27,4.11-40.82
			c2.71-11.55,7.05-21.32,12.99-29.31c5.94-7.92,13.63-13.85,23.09-17.81c9.45-3.96,20.77-5.94,33.92-5.94
			c13.71,0,25.22,2.04,34.51,6.11c9.3,4.08,16.92,10.16,22.86,18.23c5.85,7.91,10.11,17.66,12.75,29.25
			C261.9,265.22,263.22,278.61,263.22,293.79z M216.67,293.79c0-21.82-2.13-37.34-6.37-46.59c-4.26-9.25-11.32-13.88-21.17-13.88
			c-9.87,0-16.92,4.63-21.18,13.88c-4.25,9.25-6.39,24.86-6.39,46.83c0,21.4,2.17,36.85,6.5,46.29
			c4.33,9.45,11.36,14.17,21.06,14.17c9.7,0,16.71-4.72,21.05-14.17C214.5,330.88,216.67,315.36,216.67,293.79z"/>
		<path d="M123.93,387.53H0V354.9h39.14v-98.75H0v-30.48c5.98,0,11.72-0.35,17.21-1.07c5.48-0.71,10.06-1.94,13.71-3.7
			c4.33-2.1,7.56-4.82,9.73-8.16c2.16-3.35,3.4-7.53,3.74-12.55h41.28v154.7h38.27V387.53z"/>
	</g>
	<g>
		<path d="M227.45,163.67c-10.98,8.95-19.44,16.92-32.13,19.43h56.62C241.79,179.99,237.87,175.18,227.45,163.67 M143,58.35
			c0,16.36-12.41,22.43-22.49,22.43H58.57V35.67h61.94C132.83,35.67,143,42.19,143,58.35 M201.52,40.79
			c-3.37-11.77-10-22.26-18.95-29.12C167.32,0.52,147.69,0.25,131.66,0H1.9v183.1h56.67v-66.65h39.24l37.48,66.65h42.96
			c-18.56-3.94-30.71-20.46-30.71-38.16c0-17.38,11.67-31.6,31.48-41.54C168.6,90.77,164.3,81.96,164.3,72.27
			C164.3,56.38,176.88,41.45,201.52,40.79 M412.41,93.37c0-27.24-8.79-43.31-12.66-50.06C374.42-1.03,321.45,0,302.59,0h-99.27
			v40.68c21.12,0.07,33.73,9.75,33.73,25.95c0,13.53-9.81,26.62-28.4,30.91c10.83,12.41,20.43,23.47,30.45,37.02
			c5.72-11.51,9.71-18.06,9.71-24.15c0-6.77-2.24-10.61-7.77-12.87v-3.84h18.85V37.75h37.75c12.15,0,27.5,1.48,39.02,10.37
			c10.73,8.28,19.18,20.67,19.18,43.95c0,22.98-6.98,36.09-17.63,44.47c-7.92,6.24-20.15,10.9-42.38,10.9h-35.95v-35.56
			c-4.54,7.18-9.1,16.89-15.48,29.44c10.83,13.77,19.45,21.65,29.22,22.57c12.53,1.18,22.68-5.94,22.68-5.94
			c-1.43,5.44-10.75,20.37-25.47,25.15h43.9c17.58,0,35.67-1.29,55.31-11.67c20.93-10.89,29.46-25.68,34.1-36.31
			C409.82,122.16,412.41,107.64,412.41,93.37"/>
		<path d="M184.71,110.01c-7.97,6.09-11.24,11.28-11.24,20.3c0,19.64,13.48,36.11,29.43,36.11c6.95,0,13.69-2.93,20.22-8.57
			C213.73,145.22,196.56,121.75,184.71,110.01 M215.36,75.71c0-13.54-7.56-25.06-16.15-25.06c-7.16,0-11.86,5.42-11.86,13.55
			c0,8.12,4.5,15.34,15.94,27.31C210.46,89.25,215.36,82.7,215.36,75.71"/>
	</g>
</g>
</svg>
