<?xml version="1.0" encoding="utf-8"?>
<!-- Generator: Adobe Illustrator 24.1.0, SVG Export Plug-In . SVG Version: 6.00 Build 0)  -->
<svg version="1.1" id="Layer_1" xmlns="http://www.w3.org/2000/svg" xmlns:xlink="http://www.w3.org/1999/xlink" x="0px" y="0px"
	 viewBox="0 0 792 250.89" style="enable-background:new 0 0 792 250.89;" xml:space="preserve">
<style type="text/css">
	.st0{fill:#FFFFFF;}
</style>
<g>
	<path class="st0" d="M132.56,222.48c0,18.04-14.68,27.06-31.46,27.06c-16.99,0-31.25-9.02-31.25-27.06v-68.79
		c0-18.04,14.26-27.05,31.25-27.05c16.78,0,31.46,9.02,31.46,27.05V222.48z M105.92,152.64c0-2.94-1.26-6.29-4.82-6.29
		c-3.56,0-4.61,3.36-4.61,6.29v70.89c0,2.94,1.05,6.29,4.61,6.29c3.57,0,4.82-3.36,4.82-6.29V152.64z"/>
	<path class="st0" d="M164.02,128.1l6.92,92.7h0.42l8.6-92.7h27.68l7.34,93.12h0.42l7.76-93.12h25.17L230.5,248.06h-30.2
		l-6.71-87.25h-0.42l-9.23,87.25h-30.2L136.75,128.1H164.02z"/>
	<path class="st0" d="M278.95,138.59h0.42c1.68-7.34,10.9-11.95,18.04-11.95c16.99,0,17.62,12.37,17.62,26.22v95.22h-26.64v-93.33
		c0-2.94-1.26-6.29-4.82-6.29c-3.57,0-4.62,3.36-4.62,6.29v93.33h-26.64V128.1h26.64V138.59z"/>
</g>
<g>
	<path class="st0" d="M351.49,232.05L332.3,21.92h31.58l6.49,76.44c1.77,24.5,3.25,49.29,3.84,74.37h1.47
		c0-27.45,2.07-54.6,3.54-81.75l7.08-69.06h33.94l6.49,82.93c2.07,25.68,2.36,45.15,3.25,67.88h1.47
		c0.89-20.66,1.18-43.38,3.25-61.68l7.97-89.13h25.38l-20.95,210.13h-33.94l-5.31-75.55c-0.88-27.15-3.84-54.01-3.84-81.16h-1.47
		c-2.66,23.02-3.25,46.33-5.9,69.36l-8.85,87.36H351.49z"/>
	<path class="st0" d="M542.19,205.79c0,17.41-13.58,28.33-35.12,28.33c-21.54,0-35.12-10.92-35.12-28.33V89.5
		c0-17.41,13.58-28.33,35.12-28.33c21.54,0,35.12,10.92,35.12,28.33V205.79z M513.86,90.1c0-7.67-2.66-8.26-6.79-8.26
		s-6.79,0.59-6.79,8.26v115.1c0,7.67,2.66,8.26,6.79,8.26s6.79-0.59,6.79-8.26V90.1z"/>
	<path class="st0" d="M554,63.24h28.33v9.74h0.59c4.13-7.97,11.8-11.81,19.48-11.81c22.43,0,21.84,14.46,21.84,32.17v58.14H595.9
		V95.7c0-4.72-0.3-10.33-6.2-10.33c-7.08,0-7.38,5.61-7.38,10.33v136.35H554V63.24z"/>
	<path class="st0" d="M706.28,232.05h-28.33v-10.03h-0.59c-4.43,6.2-11.8,12.1-20.36,12.1c-10.92,0-20.95-5.9-20.95-19.77V80.95
		c0-13.87,10.03-19.77,20.95-19.77c9.15,0,16.23,6.2,20.36,12.69h0.59V21.92h28.33V232.05z M664.38,199.59
		c0,8.85,3.25,10.33,6.79,10.33c3.54,0,6.79-1.48,6.79-10.33V95.7c0-8.85-3.24-10.33-6.79-10.33c-3.54,0-6.79,1.48-6.79,10.33
		V199.59z"/>
	<path class="st0" d="M746.42,166.24v36.89c0,8.85,3.25,10.33,6.79,10.33c3.54,0,6.79-1.48,6.79-10.33v-17.41
		c0-27.15-41.91-46.63-41.91-73.49V89.5c0-17.41,13.58-28.33,35.12-28.33c21.54,0,35.12,10.92,35.12,28.33v34.83H760V92.16
		c0-8.85-3.24-10.33-6.79-10.33c-3.54,0-6.79,1.47-6.79,10.33v13.87c0,17.12,41.91,40.43,41.91,65.52v34.24
		c0,17.41-13.58,28.33-35.12,28.33c-21.54,0-35.12-10.92-35.12-28.33v-39.55H746.42z"/>
</g>
<g>
	<path class="st0" d="M2.22,101.83V2.06h19.76v99.77H2.22z"/>
	<path class="st0" d="M46.64,28.69h0.28c1.12-4.9,7.29-7.99,12.05-7.99c11.35,0,11.77,8.27,11.77,17.52v63.62h-17.8V39.48
		c0-1.96-0.84-4.2-3.22-4.2c-2.38,0-3.08,2.24-3.08,4.2v62.36h-17.8V21.68h17.8V28.69z"/>
	<path class="st0" d="M132.26,101.83H112.5V16.36H99.19V2.06h46.38v14.29h-13.31V101.83z"/>
	<path class="st0" d="M148.09,101.83V2.06h17.8v26.63h0.7c0.7-4.9,6.87-7.99,11.63-7.99c11.35,0,11.77,8.27,11.77,17.52v63.62h-17.8
		V39.48c0-1.96-0.84-4.2-3.22-4.2c-2.38,0-3.08,2.24-3.08,4.2v62.36H148.09z"/>
	<path class="st0" d="M194.76,38.78c0-12.05,9.53-18.08,20.88-18.08c11.21,0,21.02,6.03,21.02,18.08v25.78h-24.1v20.88
		c0,1.96,0.7,4.2,3.08,4.2c2.38,0,3.22-2.24,3.22-4.2V70.03h17.8v14.71c0,12.05-9.81,18.08-21.02,18.08
		c-11.35,0-20.88-6.03-20.88-18.08V38.78z M218.86,52.51V38.08c0-1.96-0.84-4.2-3.22-4.2c-2.38,0-3.08,2.24-3.08,4.2v14.43H218.86z"
		/>
	<path class="st0" d="M241.84,17.2V2.06h17.8V17.2H241.84z M241.84,101.83V21.68h17.8v80.15H241.84z"/>
	<path class="st0" d="M282.62,28.55h0.28c2.66-4.9,6.59-7.85,12.75-7.85c8.83,0,11.07,5.33,11.07,14.01v30.13h-17.8V39.48
		c0-1.96-0.84-4.2-3.22-4.2c-2.38,0-3.08,2.24-3.08,4.2v62.36h-17.8V21.68h17.8V28.55z"/>
</g>
</svg>
