<?xml version="1.0" encoding="utf-8"?>
<!-- Generator: Adobe Illustrator 24.1.0, SVG Export Plug-In . SVG Version: 6.00 Build 0)  -->
<svg version="1.1" id="Layer_1" xmlns="http://www.w3.org/2000/svg" xmlns:xlink="http://www.w3.org/1999/xlink" x="0px" y="0px"
	 viewBox="0 0 792 612" style="enable-background:new 0 0 792 612;" xml:space="preserve">
<style type="text/css">
	.st0{fill:#FFFFFF;}
</style>
<g>
	<path class="st0" d="M212.97,291.41v-93.15h13.87v35.72h7.72v-35.72h13.87v93.15h-13.87v-45.27h-7.72v45.27H212.97z"/>
	<path class="st0" d="M268.44,211.6h-12.56v-13.34h12.56V211.6z M255.88,291.41v-74.83h12.56v74.83H255.88z"/>
	<path class="st0" d="M287.02,262.23v16.35c0,3.92,1.44,4.58,3.01,4.58c1.57,0,3.01-0.65,3.01-4.58v-7.72
		c0-12.04-18.58-20.67-18.58-32.58v-10.07c0-7.72,6.02-12.56,15.57-12.56c9.55,0,15.57,4.84,15.57,12.56v15.44h-12.56V229.4
		c0-3.93-1.44-4.58-3.01-4.58c-1.57,0-3.01,0.65-3.01,4.58v6.15c0,7.59,18.58,17.92,18.58,29.04v15.18
		c0,7.72-6.02,12.56-15.57,12.56c-9.55,0-15.57-4.84-15.57-12.56v-17.53H287.02z"/>
	<path class="st0" d="M325.22,216.57h4.06v9.94h-4.06v48.93c0,5.63,1.44,6.02,2.75,6.02h1.31v9.94h-7.2c-7.72,0-9.42-7.06-9.42-9.94
		v-54.95H309v-9.94h3.66V203.1h12.56V216.57z"/>
	<path class="st0" d="M363.81,279.76c0,7.72-6.02,12.56-15.57,12.56c-9.55,0-15.57-4.84-15.57-12.56v-51.55
		c0-7.72,6.02-12.56,15.57-12.56c9.55,0,15.57,4.84,15.57,12.56V279.76z M351.25,228.48c0-3.4-1.18-3.66-3.01-3.66
		s-3.01,0.26-3.01,3.66v51.02c0,3.4,1.18,3.66,3.01,3.66s3.01-0.26,3.01-3.66V228.48z"/>
	<path class="st0" d="M369.05,216.57h12.56v4.32h0.26c1.83-3.53,5.23-5.23,8.63-5.23c9.94,0,9.68,6.41,9.68,14.26v25.77h-12.56
		v-24.73c0-2.09-0.13-4.58-2.75-4.58c-3.14,0-3.27,2.49-3.27,4.58v60.44h-12.56V216.57z"/>
	<path class="st0" d="M403.32,216.57h12.43l2.75,24.86c1.31,11.77,1.7,23.55,2.09,33.49h0.52c0.65-9.16,0.65-21.33,1.96-30.88
		l3.01-27.47h12.43l-11.12,79.28c-1.57,11.12-3.27,12.3-13.87,12.3c-2.88,0-5.36-0.13-7.72-0.13v-9.81h3.79
		c3.79,0,4.45-1.96,4.45-4.45c0-3.79-1.7-10.99-2.09-15.31L403.32,216.57z"/>
</g>
<g>
	<path class="st0" d="M369.12,405.09v-93.15h31.14v12.17h-17.27v23.94h16.62v12.17h-16.62v44.88H369.12z"/>
	<path class="st0" d="M435.19,405.09h-12.56v-4.32h-0.26c-1.83,3.53-5.23,5.23-8.63,5.23c-9.94,0-9.68-6.41-9.68-14.26v-61.49h12.56
		v60.44c0,2.09,0.13,4.58,2.75,4.58c3.14,0,3.27-2.49,3.27-4.58v-60.44h12.56V405.09z"/>
	<path class="st0" d="M454.82,330.25h4.06v9.94h-4.06v48.93c0,5.62,1.44,6.02,2.75,6.02h1.31v9.94h-7.2c-7.72,0-9.42-7.07-9.42-9.94
		V340.2h-3.66v-9.94h3.66v-13.48h12.56V330.25z"/>
	<path class="st0" d="M493.41,405.09h-12.56v-4.32h-0.26c-1.83,3.53-5.23,5.23-8.63,5.23c-9.94,0-9.68-6.41-9.68-14.26v-61.49h12.56
		v60.44c0,2.09,0.13,4.58,2.75,4.58c3.14,0,3.27-2.49,3.27-4.58v-60.44h12.56V405.09z"/>
	<path class="st0" d="M498.65,330.25h12.56v4.32h0.26c1.83-3.53,5.23-5.23,8.63-5.23c9.94,0,9.68,6.41,9.68,14.26v25.77h-12.56
		v-24.73c0-2.09-0.13-4.58-2.75-4.58c-3.14,0-3.27,2.49-3.27,4.58v60.44h-12.56V330.25z"/>
	<path class="st0" d="M566.16,375.65v17.79c0,7.72-6.02,12.56-15.57,12.56c-9.55,0-15.57-4.84-15.57-12.56V341.9
		c0-7.72,6.02-12.56,15.57-12.56c9.55,0,15.57,4.84,15.57,12.56v27.47h-18.58v23.81c0,3.4,1.18,3.66,3.01,3.66
		c1.83,0,3.01-0.26,3.01-3.66v-17.53H566.16z M553.6,342.16c0-3.4-1.18-3.66-3.01-3.66c-1.83,0-3.01,0.26-3.01,3.66v18.45h6.02
		V342.16z"/>
</g>
<g>
	<path class="st0" d="M172.7,225.21h17.39l7.9,66.2h-13.67l-1.49-18.04h-6.23l-2.04,18.04h-11.71L172.7,225.21z M182,263.89
		l-1.77-27.15h-0.37l-2.14,27.15H182z"/>
</g>
<g>
	<path class="st0" d="M195.71,341.46c0,5.34-4.35,8.01-9.32,8.01c-5.03,0-9.26-2.67-9.26-8.01v-20.38c0-5.34,4.22-8.01,9.26-8.01
		c4.97,0,9.32,2.67,9.32,8.01V341.46z M187.82,320.77c0-0.87-0.37-1.86-1.43-1.86c-1.06,0-1.37,0.99-1.37,1.86v21
		c0,0.87,0.31,1.86,1.37,1.86c1.06,0,1.43-0.99,1.43-1.86V320.77z"/>
	<path class="st0" d="M199,319.34h-1.86v-5.84H199v-2.3c0-4.97,1.93-6.4,7.02-6.4h3.29v5.84h-0.56c-1.61,0-1.86,0.68-1.86,2.17v0.68
		h2.42v5.84h-2.42v29.69H199V319.34z"/>
	<path class="st0" d="M222.11,304.81h10.31c5.4,0,10.31,2.17,10.31,8.95v3.35c0,4.22-0.99,7.21-6.58,8.32v0.19
		c4.53,0.43,6.58,2.55,6.58,9.63v3.85c0,7.58-3.54,9.94-10.31,9.94h-10.31V304.81z M233.98,313.94c0-2.11-0.62-2.79-2.05-2.79h-1.06
		v12.05h1.06c1.43,0,2.05-0.68,2.05-2.8V313.94z M230.87,342.7h1.06c1.43,0,2.05-0.37,2.05-2.11v-9.81c0-1.74-0.62-2.11-2.05-2.11
		h-1.06V342.7z"/>
	<path class="st0" d="M255.66,345.06h-0.12c0,2.42-2.67,4.41-5.03,4.41c-4.1,0-5.53-2.61-5.53-6.34V313.5h7.89v27.64
		c0,0.87,0.31,1.86,1.37,1.86c1.06,0,1.43-0.99,1.43-1.86V313.5h7.89v35.53h-7.89V345.06z"/>
	<path class="st0" d="M265.84,311.52v-6.71h7.89v6.71H265.84z M265.84,349.04V313.5h7.89v35.53H265.84z"/>
	<path class="st0" d="M276.22,349.04v-44.23h7.89v44.23H276.22z"/>
	<path class="st0" d="M297.09,345.31h-0.12c-0.68,2.48-2.67,4.16-5.03,4.16c-4.91,0-5.53-3.98-5.53-7.95v-20.69
		c0-3.98,0.62-7.77,5.53-7.77c2.36,0,4.35,1.49,5.03,3.54h0.12v-11.8h7.89v44.23h-7.89V345.31z M297.09,321.39
		c0-0.87-0.37-1.86-1.43-1.86c-1.06,0-1.37,0.99-1.37,1.86v19.75c0,0.87,0.31,1.86,1.37,1.86c1.06,0,1.43-0.99,1.43-1.86V321.39z"/>
	<path class="st0" d="M307.28,311.52v-6.71h7.89v6.71H307.28z M307.28,349.04V313.5h7.89v35.53H307.28z"/>
	<path class="st0" d="M325.35,316.61h0.12c0.5-2.17,3.23-3.54,5.34-3.54c5.03,0,5.22,3.67,5.22,7.77v28.2h-7.89v-27.64
		c0-0.87-0.37-1.86-1.43-1.86c-1.06,0-1.37,0.99-1.37,1.86v27.64h-7.89V313.5h7.89V316.61z"/>
	<path class="st0" d="M356.72,348.97c0,5.84-3.73,8.01-9.26,8.01c-5.53,0-9.32-2.17-9.32-8.01v-2.67h7.89v3.35
		c0,0.87,0.31,1.86,1.37,1.86c1.06,0,1.43-0.99,1.43-1.86v-7.95h-0.31c-0.93,1.99-3.04,3.42-5.4,3.42c-3.6,0-4.97-2.61-4.97-6.03
		v-19.69c0-3.42,1.37-6.34,4.97-6.34c2.36,0,4.47,1.74,5.4,3.73h0.31v-3.29h7.89V348.97z M348.83,321.39c0-0.87-0.37-1.86-1.43-1.86
		c-1.06,0-1.37,0.99-1.37,1.86v15.65c0,0.87,0.31,1.86,1.37,1.86c1.06,0,1.43-0.99,1.43-1.86V321.39z"/>
</g>
<g>
	<path class="st0" d="M315.88,369.55h2.17v5.84h-2.17v21.43c0,1.12,0.19,2.42,1.37,2.42h0.93v5.84h-3.54
		c-5.65,0-6.65-1.74-6.65-7.21v-22.49h-2.11v-5.84h2.11v-6.46h7.89V369.55z"/>
	<path class="st0" d="M319.42,405.09v-44.23h7.89v11.8h0.31c0.31-2.17,3.04-3.54,5.16-3.54c5.03,0,5.22,3.67,5.22,7.76v28.2h-7.89
		v-27.64c0-0.87-0.37-1.86-1.43-1.86s-1.37,0.99-1.37,1.86v27.64H319.42z"/>
	<path class="st0" d="M340.1,377.13c0-5.34,4.22-8.01,9.26-8.01c4.97,0,9.32,2.67,9.32,8.01v11.43h-10.68v9.25
		c0,0.87,0.31,1.86,1.37,1.86s1.43-0.99,1.43-1.86v-6.83h7.89v6.52c0,5.34-4.35,8.01-9.32,8.01c-5.03,0-9.26-2.67-9.26-8.01V377.13z
		 M350.79,383.22v-6.4c0-0.87-0.37-1.86-1.43-1.86s-1.37,0.99-1.37,1.86v6.4H350.79z"/>
</g>
</svg>
