<?xml version="1.0" encoding="utf-8"?>
<!-- Generator: Adobe Illustrator 24.1.0, SVG Export Plug-In . SVG Version: 6.00 Build 0)  -->
<svg version="1.1" id="Layer_1" xmlns="http://www.w3.org/2000/svg" xmlns:xlink="http://www.w3.org/1999/xlink" x="0px" y="0px"
	 viewBox="0 0 792 612" style="enable-background:new 0 0 792 612;" xml:space="preserve">
<style type="text/css">
	.st0{fill:#FFFFFF;}
</style>
<g>
	<path class="st0" d="M294.02,267.04l-8.5-93.15h14l2.88,33.88c0.79,10.86,1.44,21.85,1.7,32.97h0.65c0-12.17,0.92-24.2,1.57-36.24
		l3.14-30.61h15.05l2.88,36.76c0.92,11.38,1.05,20.02,1.44,30.09h0.65c0.39-9.16,0.52-19.23,1.44-27.34l3.53-39.51h11.25
		l-9.29,93.15h-15.05l-2.35-33.49c-0.39-12.04-1.7-23.94-1.7-35.98h-0.65c-1.18,10.2-1.44,20.54-2.62,30.75l-3.92,38.73H294.02z"/>
	<path class="st0" d="M378.56,255.4c0,7.72-6.02,12.56-15.57,12.56c-9.55,0-15.57-4.84-15.57-12.56v-51.55
		c0-7.72,6.02-12.56,15.57-12.56c9.55,0,15.57,4.84,15.57,12.56V255.4z M366,204.11c0-3.4-1.18-3.66-3.01-3.66s-3.01,0.26-3.01,3.66
		v51.02c0,3.4,1.18,3.66,3.01,3.66s3.01-0.26,3.01-3.66V204.11z"/>
	<path class="st0" d="M397.01,197.18h0.26c1.83-3.14,4.71-5.89,8.77-5.89c4.45,0,6.67,1.57,8.9,5.36c1.96-3.93,4.32-5.36,9.03-5.36
		c9.55,0,9.68,5.63,9.68,13.48v62.27h-12.56V206.6c0-2.09-0.13-4.58-3.01-4.58c-2.62,0-2.75,2.49-2.75,4.58v60.44h-12.56V206.6
		c0-2.09-0.13-4.58-3.01-4.58c-2.62,0-2.75,2.49-2.75,4.58v60.44h-12.56V192.2h12.56V197.18z"/>
	<path class="st0" d="M470.67,237.6v17.79c0,7.72-6.02,12.56-15.57,12.56c-9.55,0-15.57-4.84-15.57-12.56v-51.55
		c0-7.72,6.02-12.56,15.57-12.56c9.55,0,15.57,4.84,15.57,12.56v27.47h-18.58v23.81c0,3.4,1.18,3.66,3.01,3.66s3.01-0.26,3.01-3.66
		V237.6H470.67z M458.11,204.11c0-3.4-1.18-3.66-3.01-3.66s-3.01,0.26-3.01,3.66v18.45h6.02V204.11z"/>
	<path class="st0" d="M475.9,192.2h12.56v4.32h0.26c1.83-3.53,5.23-5.23,8.63-5.23c9.55,0,9.68,5.63,9.68,13.48v62.27h-12.56V206.6
		c0-2.09-0.13-4.58-2.75-4.58c-3.14,0-3.27,2.49-3.27,4.58v60.44H475.9V192.2z"/>
</g>
<g>
	<path class="st0" d="M270.73,365.21v15.25c0,8.83-7.35,12.09-15.43,12.09c-8.09,0-15.43-3.25-15.43-12.09v-44.63
		c0-8.83,7.34-12.09,15.43-12.09c8.09,0,15.43,3.25,15.43,12.09v12.55h-13.11v-10.41c0-1.86-0.28-4.37-2.32-4.37
		c-2.05,0-2.32,2.51-2.32,4.37v40.35c0,1.86,0.28,4.37,2.32,4.37c2.05,0,2.32-2.51,2.32-4.37v-13.11H270.73z"/>
	<path class="st0" d="M301.88,379.9c0,8-6.51,11.99-13.95,11.99c-7.53,0-13.85-4-13.85-11.99v-30.5c0-8,6.32-11.99,13.85-11.99
		c7.44,0,13.95,4,13.95,11.99V379.9z M290.07,348.94c0-1.3-0.56-2.79-2.14-2.79c-1.58,0-2.04,1.49-2.04,2.79v31.42
		c0,1.3,0.46,2.79,2.04,2.79c1.58,0,2.14-1.49,2.14-2.79V348.94z"/>
	<path class="st0" d="M316.57,342.8h0.19c1.86-3.53,3.16-5.39,7.9-5.39c4.18,0,6.23,1.21,7.62,5.49c2.04-3.53,3.35-5.49,8.09-5.49
		c7.44,0,8.18,5.86,8.18,9.86v43.98h-11.81v-41.37c0-1.3-0.56-2.79-2.14-2.79c-1.58,0-2.04,1.49-2.04,2.79v41.37h-11.81v-41.37
		c0-1.3-0.56-2.79-2.14-2.79c-1.58,0-2.04,1.49-2.04,2.79v41.37h-11.81v-53.18h11.81V342.8z"/>
	<path class="st0" d="M363.52,343.64h0.19c0.74-3.72,3.72-6.23,7.25-6.23c7.34,0,8.55,5.95,8.55,11.9v30.96
		c0,5.95-1.21,11.62-8.55,11.62c-3.53,0-6.51-2.23-7.25-5.3h-0.19v16.55h-11.81v-65.08h11.81V343.64z M367.7,349.87
		c0-1.3-0.56-2.79-2.14-2.79c-1.58,0-2.04,1.49-2.04,2.79v29.57c0,1.3,0.46,2.79,2.04,2.79c1.58,0,2.14-1.49,2.14-2.79V349.87z"/>
	<path class="st0" d="M398.47,385.29h-0.19c0,3.63-4,6.6-7.53,6.6c-6.14,0-8.28-3.9-8.28-9.48v-44.35h11.81v41.37
		c0,1.3,0.46,2.79,2.05,2.79c1.58,0,2.14-1.49,2.14-2.79v-41.37h11.81v53.18h-11.81V385.29z"/>
	<path class="st0" d="M427.11,338.06h3.25v8.74h-3.25v32.08c0,1.67,0.28,3.63,2.05,3.63h1.39v8.74h-5.3c-8.46,0-9.95-2.6-9.95-10.79
		V346.8h-3.16v-8.74h3.16v-9.67h11.81V338.06z"/>
	<path class="st0" d="M432.69,335.09v-10.04h11.81v10.04H432.69z M432.69,391.24v-53.18h11.81v53.18H432.69z"/>
	<path class="st0" d="M459.74,342.71h0.19c0.74-3.25,4.83-5.3,8-5.3c7.53,0,7.81,5.49,7.81,11.62v42.21h-11.81v-41.37
		c0-1.3-0.56-2.79-2.14-2.79c-1.58,0-2.05,1.49-2.05,2.79v41.37h-11.81v-53.18h11.81V342.71z"/>
	<path class="st0" d="M506.69,391.15c0,8.74-5.58,11.99-13.85,11.99s-13.95-3.25-13.95-11.99v-4h11.81v5.02
		c0,1.3,0.46,2.79,2.05,2.79c1.58,0,2.14-1.49,2.14-2.79v-11.9h-0.46c-1.39,2.97-4.56,5.11-8.09,5.11c-5.39,0-7.44-3.91-7.44-9.02
		v-29.47c0-5.11,2.05-9.48,7.44-9.48c3.53,0,6.69,2.6,8.09,5.58h0.46v-4.93h11.81V391.15z M494.88,349.87c0-1.3-0.56-2.79-2.14-2.79
		c-1.58,0-2.05,1.49-2.05,2.79v23.43c0,1.3,0.46,2.79,2.05,2.79c1.58,0,2.14-1.49,2.14-2.79V349.87z"/>
</g>
<g>
	<path class="st0" d="M229.63,279.71V273h7.89v6.71H229.63z M229.63,317.23V281.7h7.89v35.53H229.63z"/>
	<path class="st0" d="M247.71,284.81h0.12c0.5-2.17,3.23-3.54,5.34-3.54c5.03,0,5.22,3.67,5.22,7.76v28.2h-7.89v-27.64
		c0-0.87-0.37-1.86-1.43-1.86c-1.06,0-1.37,0.99-1.37,1.86v27.64h-7.89V281.7h7.89V284.81z"/>
	<path class="st0" d="M272.12,317.23V273h8.76v37.89h7.76v6.34H272.12z"/>
	<path class="st0" d="M308.95,309.65c0,5.34-4.35,8.01-9.32,8.01c-5.03,0-9.26-2.67-9.26-8.01v-20.37c0-5.34,4.22-8.01,9.26-8.01
		c4.97,0,9.32,2.67,9.32,8.01V309.65z M301.07,288.97c0-0.87-0.37-1.86-1.43-1.86c-1.06,0-1.37,0.99-1.37,1.86v21
		c0,0.87,0.31,1.86,1.37,1.86c1.06,0,1.43-0.99,1.43-1.86V288.97z"/>
	<path class="st0" d="M321.94,288.97c0-0.87-0.37-1.86-1.62-1.86c-1.24,0-1.55,0.99-1.55,1.86v2.05c0,6.21,11.06,4.84,11.06,15.78
		v2.86c0,5.34-4.35,8.01-9.5,8.01c-4.85,0-9.44-2.67-9.44-8.01v-5.9h7.89v6.21c0,0.87,0.31,1.86,1.55,1.86
		c1.24,0,1.62-0.99,1.62-1.86v-2.98c0-6.27-11.06-5.53-11.06-14.72v-2.98c0-5.34,4.6-8.01,9.44-8.01c5.16,0,9.5,2.67,9.5,8.01v4.78
		h-7.89V288.97z"/>
	<path class="st0" d="M348.52,273h11.62l5.28,44.23h-9.13l-0.99-12.05h-4.16l-1.37,12.05h-7.83L348.52,273z M354.74,298.85
		l-1.18-18.14h-0.25l-1.43,18.14H354.74z"/>
	<path class="st0" d="M366.41,317.23V273h7.89v44.23H366.41z"/>
	<path class="st0" d="M376.6,289.28c0-5.34,4.22-8.01,9.26-8.01c4.97,0,9.32,2.67,9.32,8.01v20.75c0,2.48,0.37,4.85,0.56,7.21h-8.01
		l-0.44-3.6h-0.12c-1.06,2.86-2.98,4.04-5.28,4.04c-3.98,0-5.28-2.36-5.28-6.4v-7.64c0-8.94,10.68-5.53,10.68-13.23v-1.43
		c0-0.87-0.37-1.86-1.43-1.86c-1.06,0-1.37,0.99-1.37,1.86v5.09h-7.89V289.28z M384.49,309.96c0,0.87,0.31,1.86,1.37,1.86
		c1.06,0,1.43-0.99,1.43-1.86v-10.25l-1.43,0.99c-1.12,0.99-1.37,1.24-1.37,2.79V309.96z"/>
	<path class="st0" d="M404.99,284.87h0.12c1.24-2.36,2.11-3.6,5.28-3.6c2.8,0,4.16,0.81,5.09,3.67c1.37-2.36,2.24-3.67,5.4-3.67
		c4.97,0,5.47,3.91,5.47,6.58v29.38h-7.89v-27.64c0-0.87-0.37-1.86-1.43-1.86c-1.06,0-1.37,0.99-1.37,1.86v27.64h-7.89v-27.64
		c0-0.87-0.37-1.86-1.43-1.86c-1.06,0-1.37,0.99-1.37,1.86v27.64h-7.89V281.7h7.89V284.87z"/>
	<path class="st0" d="M446.92,309.65c0,5.34-4.35,8.01-9.32,8.01c-5.03,0-9.26-2.67-9.26-8.01v-20.37c0-5.34,4.22-8.01,9.26-8.01
		c4.97,0,9.32,2.67,9.32,8.01V309.65z M439.03,288.97c0-0.87-0.37-1.86-1.43-1.86c-1.06,0-1.37,0.99-1.37,1.86v21
		c0,0.87,0.31,1.86,1.37,1.86c1.06,0,1.43-0.99,1.43-1.86V288.97z"/>
	<path class="st0" d="M459.9,288.97c0-0.87-0.37-1.86-1.62-1.86c-1.24,0-1.55,0.99-1.55,1.86v2.05c0,6.21,11.06,4.84,11.06,15.78
		v2.86c0,5.34-4.35,8.01-9.5,8.01c-4.85,0-9.44-2.67-9.44-8.01v-5.9h7.89v6.21c0,0.87,0.31,1.86,1.55,1.86
		c1.24,0,1.62-0.99,1.62-1.86v-2.98c0-6.27-11.06-5.53-11.06-14.72v-2.98c0-5.34,4.6-8.01,9.44-8.01c5.16,0,9.5,2.67,9.5,8.01v4.78
		h-7.89V288.97z"/>
</g>
</svg>
