<?xml version="1.0" encoding="utf-8"?>
<!-- Generator: Adobe Illustrator 24.1.0, SVG Export Plug-In . SVG Version: 6.00 Build 0)  -->
<svg version="1.1" id="Layer_1" xmlns="http://www.w3.org/2000/svg" xmlns:xlink="http://www.w3.org/1999/xlink" x="0px" y="0px"
	 viewBox="0 0 792 612" style="enable-background:new 0 0 792 612;" xml:space="preserve">
<style type="text/css">
	.st0{fill:#FFFFFF;}
</style>
<g>
	<path class="st0" d="M249,343.07c0,8-6.51,11.99-13.95,11.99c-7.53,0-13.85-4-13.85-11.99v-30.49c0-8,6.32-11.99,13.85-11.99
		c7.44,0,13.95,4,13.95,11.99V343.07z M237.19,312.11c0-1.3-0.56-2.79-2.14-2.79c-1.58,0-2.05,1.49-2.05,2.79v31.42
		c0,1.3,0.47,2.79,2.05,2.79c1.58,0,2.14-1.49,2.14-2.79V312.11z"/>
	<path class="st0" d="M262.95,301.23l3.07,41.09h0.19l3.81-41.09h12.27l3.25,41.28h0.19l3.44-41.28h11.16l-7.9,53.18h-13.39
		l-2.97-38.68h-0.19l-4.09,38.68h-13.39l-7.53-53.18H262.95z"/>
	<path class="st0" d="M313.89,305.88h0.19c0.74-3.25,4.83-5.3,8-5.3c7.53,0,7.81,5.49,7.81,11.62v42.21h-11.81v-41.37
		c0-1.3-0.56-2.79-2.14-2.79c-1.58,0-2.05,1.49-2.05,2.79v41.37h-11.81v-53.18h11.81V305.88z"/>
</g>
<g>
	<path class="st0" d="M346.05,347.31l-8.5-93.15h14l2.88,33.88c0.79,10.86,1.44,21.85,1.7,32.97h0.65c0-12.17,0.92-24.2,1.57-36.24
		l3.14-30.61h15.05l2.88,36.76c0.92,11.38,1.05,20.02,1.44,30.09h0.65c0.39-9.16,0.52-19.23,1.44-27.34l3.53-39.51h11.25
		l-9.29,93.15h-15.05l-2.35-33.49c-0.39-12.04-1.7-23.94-1.7-35.98h-0.65c-1.18,10.2-1.44,20.54-2.62,30.75l-3.92,38.72H346.05z"/>
	<path class="st0" d="M430.59,335.67c0,7.72-6.02,12.56-15.57,12.56c-9.55,0-15.57-4.84-15.57-12.56v-51.55
		c0-7.72,6.02-12.56,15.57-12.56c9.55,0,15.57,4.84,15.57,12.56V335.67z M418.03,284.39c0-3.4-1.18-3.66-3.01-3.66
		s-3.01,0.26-3.01,3.66v51.02c0,3.4,1.18,3.66,3.01,3.66s3.01-0.26,3.01-3.66V284.39z"/>
	<path class="st0" d="M435.82,272.48h12.56v4.32h0.26c1.83-3.53,5.23-5.23,8.63-5.23c9.94,0,9.68,6.41,9.68,14.26v25.77H454.4
		v-24.73c0-2.09-0.13-4.58-2.75-4.58c-3.14,0-3.27,2.49-3.27,4.58v60.44h-12.56V272.48z"/>
	<path class="st0" d="M503.33,347.31h-12.56v-4.45h-0.26c-1.96,2.75-5.23,5.36-9.03,5.36c-4.84,0-9.29-2.62-9.29-8.77v-59.13
		c0-6.15,4.45-8.77,9.29-8.77c4.06,0,7.2,2.75,9.03,5.63h0.26v-23.03h12.56V347.31z M484.75,332.92c0,3.92,1.44,4.58,3.01,4.58
		c1.57,0,3.01-0.65,3.01-4.58v-46.05c0-3.92-1.44-4.58-3.01-4.58c-1.57,0-3.01,0.65-3.01,4.58V332.92z"/>
	<path class="st0" d="M521.12,318.14v16.35c0,3.92,1.44,4.58,3.01,4.58c1.57,0,3.01-0.65,3.01-4.58v-7.72
		c0-12.04-18.58-20.67-18.58-32.58v-10.07c0-7.72,6.02-12.56,15.57-12.56c9.55,0,15.57,4.84,15.57,12.56v15.44h-12.56V285.3
		c0-3.93-1.44-4.58-3.01-4.58c-1.57,0-3.01,0.65-3.01,4.58v6.15c0,7.59,18.58,17.92,18.58,29.04v15.18
		c0,7.72-6.02,12.56-15.57,12.56c-9.55,0-15.57-4.84-15.57-12.56v-17.53H521.12z"/>
</g>
<g>
	<path class="st0" d="M191.22,289.59v-44.23h8.76v44.23H191.22z"/>
	<path class="st0" d="M210.92,257.16h0.12c0.5-2.17,3.23-3.54,5.34-3.54c5.03,0,5.22,3.67,5.22,7.77v28.2h-7.89v-27.64
		c0-0.87-0.37-1.86-1.43-1.86c-1.06,0-1.37,0.99-1.37,1.86v27.64h-7.89v-35.53h7.89V257.16z"/>
	<path class="st0" d="M248.87,289.59h-8.76V251.7h-5.9v-6.34h20.56v6.34h-5.9V289.59z"/>
	<path class="st0" d="M255.89,289.59v-44.23h7.89v11.8h0.31c0.31-2.17,3.04-3.54,5.16-3.54c5.03,0,5.22,3.67,5.22,7.77v28.2h-7.89
		v-27.64c0-0.87-0.37-1.86-1.43-1.86c-1.06,0-1.37,0.99-1.37,1.86v27.64H255.89z"/>
	<path class="st0" d="M276.57,261.64c0-5.34,4.22-8.01,9.26-8.01c4.97,0,9.32,2.67,9.32,8.01v11.43h-10.68v9.26
		c0,0.87,0.31,1.86,1.37,1.86c1.06,0,1.43-0.99,1.43-1.86v-6.83h7.89v6.52c0,5.34-4.35,8.01-9.32,8.01c-5.03,0-9.26-2.67-9.26-8.01
		V261.64z M287.26,267.72v-6.4c0-0.87-0.37-1.86-1.43-1.86c-1.06,0-1.37,0.99-1.37,1.86v6.4H287.26z"/>
	<path class="st0" d="M297.45,252.07v-6.71h7.89v6.71H297.45z M297.45,289.59v-35.53h7.89v35.53H297.45z"/>
	<path class="st0" d="M315.52,257.1h0.12c1.18-2.17,2.92-3.48,5.65-3.48c3.91,0,4.91,2.36,4.91,6.21v13.36h-7.89v-11.24
		c0-0.87-0.37-1.86-1.43-1.86c-1.06,0-1.37,0.99-1.37,1.86v27.64h-7.89v-35.53h7.89V257.1z"/>
</g>
</svg>
