<?xml version="1.0" encoding="utf-8"?>
<!-- Generator: Adobe Illustrator 24.1.0, SVG Export Plug-In . SVG Version: 6.00 Build 0)  -->
<svg version="1.1" id="Layer_1" xmlns="http://www.w3.org/2000/svg" xmlns:xlink="http://www.w3.org/1999/xlink" x="0px" y="0px"
	 viewBox="0 0 792 411.31" style="enable-background:new 0 0 792 411.31;" xml:space="preserve">
<style type="text/css">
	.st0{fill:#FFFFFF;}
</style>
<g>
	<path class="st0" d="M99.19,185.12V2.9h27.13v69.87h15.1V2.9h27.13v182.22h-27.13V96.57h-15.1v88.55H99.19z"/>
	<path class="st0" d="M207.7,29.01h-24.57V2.9h24.57V29.01z M183.13,185.12V38.73h24.57v146.39H183.13z"/>
	<path class="st0" d="M244.04,128.05v31.99c0,7.68,2.81,8.96,5.89,8.96c3.07,0,5.89-1.28,5.89-8.96v-15.1
		c0-23.55-36.34-40.44-36.34-63.73V61.51c0-15.1,11.77-24.57,30.46-24.57c18.68,0,30.46,9.47,30.46,24.57v30.2h-24.57v-27.9
		c0-7.68-2.81-8.96-5.89-8.96c-3.07,0-5.89,1.28-5.89,8.96v12.03c0,14.84,36.34,35.06,36.34,56.82v29.69
		c0,15.1-11.77,24.57-30.46,24.57c-18.68,0-30.46-9.47-30.46-24.57v-34.3H244.04z"/>
	<path class="st0" d="M318.78,38.73h7.93v19.45h-7.93v95.72c0,11,2.81,11.77,5.37,11.77h2.56v19.45h-14.08
		c-15.1,0-18.43-13.82-18.43-19.45V58.18h-7.17V38.73h7.17V12.37h24.57V38.73z"/>
	<path class="st0" d="M394.27,162.35c0,15.1-11.77,24.57-30.46,24.57c-18.68,0-30.46-9.47-30.46-24.57V61.51
		c0-15.1,11.77-24.57,30.46-24.57c18.68,0,30.46,9.47,30.46,24.57V162.35z M369.71,62.02c0-6.65-2.3-7.17-5.89-7.17
		s-5.89,0.51-5.89,7.17v99.81c0,6.65,2.3,7.17,5.89,7.17s5.89-0.51,5.89-7.17V62.02z"/>
	<path class="st0" d="M404.51,38.73h24.57v8.45h0.51c3.58-6.91,10.24-10.24,16.89-10.24c19.45,0,18.94,12.54,18.94,27.9v50.42
		h-24.57V66.88c0-4.09-0.26-8.96-5.37-8.96c-6.14,0-6.4,4.86-6.4,8.96v118.24h-24.57V38.73z"/>
	<path class="st0" d="M471.57,38.73h24.31l5.37,48.63c2.56,23.03,3.33,46.07,4.1,65.52h1.02c1.28-17.92,1.28-41.72,3.84-60.4
		l5.89-53.75h24.31l-21.76,155.09c-3.07,21.75-6.4,24.06-27.13,24.06c-5.63,0-10.49-0.26-15.1-0.26v-19.19h7.42
		c7.42,0,8.7-3.84,8.7-8.7c0-7.42-3.33-21.5-4.1-29.94L471.57,38.73z"/>
</g>
<g>
	<path class="st0" d="M404.67,407.51V225.28h60.91v23.8h-33.78v46.83h32.5v23.8h-32.5v87.79H404.67z"/>
	<path class="st0" d="M533.91,407.51h-24.57v-8.45h-0.51c-3.58,6.91-10.24,10.24-16.89,10.24c-19.45,0-18.94-12.54-18.94-27.9
		V261.11h24.57v118.24c0,4.1,0.26,8.96,5.37,8.96c6.14,0,6.4-4.86,6.4-8.96V261.11h24.57V407.51z"/>
	<path class="st0" d="M572.3,261.11h7.93v19.45h-7.93v95.72c0,11,2.81,11.77,5.37,11.77h2.56v19.45h-14.08
		c-15.1,0-18.43-13.82-18.43-19.45V280.56h-7.17v-19.45h7.17v-26.36h24.57V261.11z"/>
	<path class="st0" d="M647.8,407.51h-24.57v-8.45h-0.51c-3.58,6.91-10.24,10.24-16.89,10.24c-19.45,0-18.94-12.54-18.94-27.9V261.11
		h24.57v118.24c0,4.1,0.26,8.96,5.37,8.96c6.14,0,6.4-4.86,6.4-8.96V261.11h24.57V407.51z"/>
	<path class="st0" d="M658.04,261.11h24.57v8.45h0.51c3.58-6.91,10.24-10.24,16.89-10.24c19.45,0,18.94,12.54,18.94,27.9v50.42
		h-24.57v-48.37c0-4.09-0.26-8.96-5.38-8.96c-6.14,0-6.4,4.86-6.4,8.96v118.24h-24.57V261.11z"/>
	<path class="st0" d="M790.1,349.92v34.81c0,15.1-11.77,24.57-30.46,24.57c-18.68,0-30.46-9.47-30.46-24.57V283.89
		c0-15.1,11.77-24.57,30.46-24.57c18.68,0,30.46,9.47,30.46,24.57v53.74h-36.34v46.58c0,6.65,2.3,7.17,5.89,7.17
		c3.58,0,5.89-0.51,5.89-7.17v-34.3H790.1z M765.53,284.4c0-6.65-2.3-7.17-5.89-7.17c-3.58,0-5.89,0.51-5.89,7.17v36.09h11.77V284.4
		z"/>
</g>
<g>
	<path class="st0" d="M20.42,55.63h34.01l15.46,129.49H43.15l-2.91-35.28H28.06l-4,35.28H1.14L20.42,55.63z M38.6,131.29
		l-3.46-53.11h-0.73l-4.18,53.11H38.6z"/>
</g>
<g>
	<path class="st0" d="M65.43,283.03c0,10.45-8.51,15.68-18.23,15.68c-9.84,0-18.11-5.23-18.11-15.68v-39.86
		c0-10.45,8.26-15.68,18.11-15.68c9.72,0,18.23,5.23,18.23,15.68V283.03z M50,242.57c0-1.7-0.73-3.65-2.79-3.65
		c-2.07,0-2.67,1.94-2.67,3.65v41.07c0,1.7,0.61,3.65,2.67,3.65c2.07,0,2.79-1.94,2.79-3.65V242.57z"/>
	<path class="st0" d="M71.87,239.77h-3.65v-11.42h3.65v-4.5c0-9.72,3.77-12.52,13.73-12.52h6.44v11.42h-1.09
		c-3.16,0-3.65,1.34-3.65,4.25v1.34h4.74v11.42h-4.74v58.09H71.87V239.77z"/>
	<path class="st0" d="M117.08,211.34h20.17c10.57,0,20.17,4.25,20.17,17.5v6.56c0,8.26-1.94,14.1-12.88,16.28v0.36
		c8.87,0.85,12.88,4.98,12.88,18.83v7.53c0,14.82-6.93,19.44-20.17,19.44h-20.17V211.34z M140.29,229.2c0-4.13-1.21-5.47-4.01-5.47
		h-2.07v23.57h2.07c2.79,0,4.01-1.34,4.01-5.47V229.2z M134.21,285.46h2.07c2.79,0,4.01-0.73,4.01-4.13v-19.2
		c0-3.4-1.21-4.13-4.01-4.13h-2.07V285.46z"/>
	<path class="st0" d="M182.7,290.08h-0.24c0,4.74-5.23,8.63-9.84,8.63c-8.02,0-10.81-5.1-10.81-12.4v-57.96h15.43v54.08
		c0,1.7,0.61,3.65,2.67,3.65c2.07,0,2.79-1.94,2.79-3.65v-54.08h15.43v69.51H182.7V290.08z"/>
	<path class="st0" d="M202.63,224.46v-13.12h15.43v13.12H202.63z M202.63,297.86v-69.51h15.43v69.51H202.63z"/>
	<path class="st0" d="M222.92,297.86v-86.52h15.43v86.52H222.92z"/>
	<path class="st0" d="M263.75,290.57h-0.24c-1.34,4.86-5.22,8.14-9.84,8.14c-9.6,0-10.81-7.78-10.81-15.55v-40.47
		c0-7.78,1.21-15.19,10.81-15.19c4.62,0,8.51,2.92,9.84,6.93h0.24v-23.09h15.43v86.52h-15.43V290.57z M263.75,243.78
		c0-1.7-0.73-3.65-2.79-3.65c-2.07,0-2.67,1.94-2.67,3.65v38.64c0,1.7,0.61,3.65,2.67,3.65c2.07,0,2.79-1.94,2.79-3.65V243.78z"/>
	<path class="st0" d="M283.68,224.46v-13.12h15.43v13.12H283.68z M283.68,297.86v-69.51h15.43v69.51H283.68z"/>
	<path class="st0" d="M319.04,234.42h0.24c0.97-4.25,6.32-6.93,10.45-6.93c9.84,0,10.21,7.17,10.21,15.19v55.17h-15.43v-54.08
		c0-1.7-0.73-3.65-2.79-3.65c-2.07,0-2.67,1.94-2.67,3.65v54.08h-15.43v-69.51h15.43V234.42z"/>
	<path class="st0" d="M380.4,297.74c0,11.42-7.29,15.67-18.11,15.67c-10.82,0-18.23-4.25-18.23-15.67v-5.23h15.43v6.56
		c0,1.7,0.61,3.65,2.67,3.65c2.07,0,2.79-1.94,2.79-3.65v-15.55h-0.61c-1.82,3.89-5.95,6.68-10.57,6.68c-7.05,0-9.72-5.1-9.72-11.79
		v-38.52c0-6.68,2.67-12.4,9.72-12.4c4.62,0,8.75,3.4,10.57,7.29h0.61v-6.44h15.43V297.74z M364.97,243.78
		c0-1.7-0.73-3.65-2.79-3.65c-2.07,0-2.67,1.94-2.67,3.65v30.62c0,1.7,0.61,3.65,2.67,3.65c2.07,0,2.79-1.94,2.79-3.65V243.78z"/>
</g>
<g>
	<path class="st0" d="M300.5,338h4.25v11.42h-4.25v41.93c0,2.19,0.36,4.74,2.67,4.74h1.82v11.42h-6.93c-11.06,0-13-3.4-13-14.1
		v-43.99h-4.13V338h4.13v-12.64h15.43V338z"/>
	<path class="st0" d="M307.42,407.51v-86.52h15.43v23.09h0.61c0.61-4.25,5.95-6.93,10.08-6.93c9.84,0,10.21,7.17,10.21,15.19v55.17
		h-15.43v-54.08c0-1.7-0.73-3.65-2.79-3.65s-2.67,1.94-2.67,3.65v54.08H307.42z"/>
	<path class="st0" d="M347.89,352.82c0-10.45,8.26-15.68,18.11-15.68c9.72,0,18.23,5.22,18.23,15.68v22.36h-20.9v18.1
		c0,1.7,0.61,3.65,2.67,3.65s2.79-1.94,2.79-3.65v-13.37h15.43v12.76c0,10.45-8.51,15.68-18.23,15.68
		c-9.84,0-18.11-5.22-18.11-15.68V352.82z M368.79,364.73v-12.52c0-1.7-0.73-3.65-2.79-3.65s-2.67,1.94-2.67,3.65v12.52H368.79z"/>
</g>
</svg>
