<?xml version="1.0" encoding="utf-8"?>
<!-- Generator: Adobe Illustrator 24.1.0, SVG Export Plug-In . SVG Version: 6.00 Build 0)  -->
<svg version="1.1" id="Layer_1" xmlns="http://www.w3.org/2000/svg" xmlns:xlink="http://www.w3.org/1999/xlink" x="0px" y="0px"
	 viewBox="0 0 739.59 612" style="enable-background:new 0 0 739.59 612;" xml:space="preserve">
<style type="text/css">
	.st0{fill:#FFFFFF;}
</style>
<g>
	<path class="st0" d="M173.02,249.09L150.46,2h37.13l7.63,89.88c2.08,28.8,3.82,57.96,4.51,87.46h1.73c0-32.28,2.43-64.2,4.16-96.13
		L213.97,2h39.91l7.63,97.52c2.43,30.19,2.78,53.1,3.82,79.82h1.73c1.04-24.29,1.39-51.02,3.82-72.53L280.26,2h29.85l-24.64,247.09
		h-39.91l-6.25-88.84c-1.04-31.93-4.51-63.51-4.51-95.44h-1.73c-3.12,27.07-3.82,54.49-6.94,81.56l-10.41,102.73H173.02z"/>
	<path class="st0" d="M397.27,218.21c0,20.48-15.96,33.32-41.3,33.32c-25.33,0-41.3-12.84-41.3-33.32V81.47
		c0-20.48,15.96-33.32,41.3-33.32c25.33,0,41.3,12.84,41.3,33.32V218.21z M363.95,82.17c0-9.02-3.12-9.72-7.98-9.72
		s-7.98,0.69-7.98,9.72v135.35c0,9.02,3.12,9.72,7.98,9.72s7.98-0.69,7.98-9.72V82.17z"/>
	<path class="st0" d="M446.2,63.77h0.69c4.86-8.33,12.49-15.62,23.25-15.62c11.8,0,17.7,4.16,23.6,14.23
		c5.21-10.41,11.45-14.23,23.95-14.23c25.33,0,25.68,14.92,25.68,35.75v165.19h-33.32V88.76c0-5.55-0.35-12.15-7.98-12.15
		c-6.94,0-7.29,6.59-7.29,12.15v160.33h-33.32V88.76c0-5.55-0.35-12.15-7.98-12.15c-6.94,0-7.29,6.59-7.29,12.15v160.33h-33.32
		V50.59h33.32V63.77z"/>
	<path class="st0" d="M641.59,171.01v47.2c0,20.48-15.96,33.32-41.3,33.32c-25.33,0-41.3-12.84-41.3-33.32V81.47
		c0-20.48,15.96-33.32,41.3-33.32c25.33,0,41.3,12.84,41.3,33.32v72.88h-49.28v63.16c0,9.02,3.12,9.72,7.98,9.72
		c4.86,0,7.98-0.69,7.98-9.72v-46.51H641.59z M608.27,82.17c0-9.02-3.12-9.72-7.98-9.72c-4.86,0-7.98,0.69-7.98,9.72v48.93h15.96
		V82.17z"/>
	<path class="st0" d="M655.47,50.59h33.32v11.45h0.69c4.86-9.37,13.88-13.88,22.9-13.88c25.33,0,25.68,14.92,25.68,35.75v165.19
		h-33.32V88.76c0-5.55-0.35-12.15-7.29-12.15c-8.33,0-8.68,6.59-8.68,12.15v160.33h-33.32V50.59z"/>
</g>
<g>
	<path class="st0" d="M111.24,509.51v40.45c0,23.43-19.48,32.06-40.94,32.06s-40.94-8.63-40.94-32.06V431.57
		c0-23.43,19.48-32.06,40.94-32.06s40.94,8.63,40.94,32.06v33.29H76.47v-27.62c0-4.93-0.74-11.59-6.17-11.59
		c-5.43,0-6.17,6.66-6.17,11.59v107.04c0,4.93,0.74,11.59,6.17,11.59c5.43,0,6.17-6.66,6.17-11.59v-34.77H111.24z"/>
	<path class="st0" d="M193.86,548.47c0,21.21-17.27,31.81-36.99,31.81c-19.98,0-36.75-10.61-36.75-31.81v-80.89
		c0-21.21,16.77-31.81,36.75-31.81c19.73,0,36.99,10.61,36.99,31.81V548.47z M162.54,466.35c0-3.45-1.48-7.4-5.67-7.4
		c-4.19,0-5.42,3.95-5.42,7.4v83.36c0,3.45,1.23,7.4,5.42,7.4c4.19,0,5.67-3.95,5.67-7.4V466.35z"/>
	<path class="st0" d="M232.82,450.07h0.49c4.93-9.37,8.39-14.3,20.96-14.3c11.1,0,16.52,3.21,20.22,14.55
		c5.42-9.37,8.88-14.55,21.46-14.55c19.73,0,21.7,15.54,21.7,26.14v116.65h-31.32V468.81c0-3.45-1.48-7.4-5.67-7.4
		c-4.19,0-5.42,3.95-5.42,7.4v109.75h-31.32V468.81c0-3.45-1.48-7.4-5.67-7.4c-4.19,0-5.42,3.95-5.42,7.4v109.75H201.5V437.49h31.32
		V450.07z"/>
	<path class="st0" d="M357.37,452.29h0.49c1.97-9.86,9.86-16.52,19.24-16.52c19.48,0,22.69,15.78,22.69,31.57v82.13
		c0,15.78-3.21,30.83-22.69,30.83c-9.37,0-17.26-5.92-19.24-14.06h-0.49v43.9h-31.32V437.49h31.32V452.29z M368.46,468.81
		c0-3.45-1.48-7.4-5.67-7.4c-4.19,0-5.42,3.95-5.42,7.4v78.43c0,3.45,1.23,7.4,5.42,7.4c4.19,0,5.67-3.95,5.67-7.4V468.81z"/>
	<path class="st0" d="M450.09,562.78h-0.49c0,9.62-10.61,17.51-19.98,17.51c-16.28,0-21.95-10.36-21.95-25.16V437.49h31.32v109.75
		c0,3.45,1.23,7.4,5.43,7.4c4.19,0,5.67-3.95,5.67-7.4V437.49h31.32v141.07h-31.32V562.78z"/>
	<path class="st0" d="M526.05,437.49h8.63v23.18h-8.63v85.08c0,4.44,0.74,9.62,5.43,9.62h3.7v23.18h-14.06
		c-22.44,0-26.39-6.91-26.39-28.61v-89.28h-8.39v-23.18h8.39v-25.65h31.32V437.49z"/>
	<path class="st0" d="M540.84,429.6v-26.64h31.32v26.64H540.84z M540.84,578.56V437.49h31.32v141.07H540.84z"/>
	<path class="st0" d="M612.61,449.82h0.49c1.97-8.63,12.82-14.06,21.21-14.06c19.98,0,20.72,14.55,20.72,30.83v111.97h-31.32V468.81
		c0-3.45-1.48-7.4-5.67-7.4c-4.19,0-5.43,3.95-5.43,7.4v109.75h-31.32V437.49h31.32V449.82z"/>
	<path class="st0" d="M737.15,578.31c0,23.18-14.8,31.81-36.75,31.81c-21.95,0-36.99-8.63-36.99-31.81v-10.61h31.32v13.32
		c0,3.45,1.23,7.4,5.43,7.4c4.19,0,5.67-3.95,5.67-7.4v-31.57h-1.23c-3.7,7.89-12.08,13.56-21.45,13.56
		c-14.3,0-19.73-10.36-19.73-23.92v-78.18c0-13.56,5.43-25.16,19.73-25.16c9.37,0,17.76,6.91,21.45,14.8h1.23v-13.07h31.32V578.31z
		 M705.83,468.81c0-3.45-1.48-7.4-5.67-7.4c-4.19,0-5.43,3.95-5.43,7.4v62.15c0,3.45,1.23,7.4,5.43,7.4c4.19,0,5.67-3.95,5.67-7.4
		V468.81z"/>
</g>
<g>
	<path class="st0" d="M2.21,282.72v-17.8h20.93v17.8H2.21z M2.21,382.24v-94.25h20.93v94.25H2.21z"/>
	<path class="st0" d="M50.16,296.23h0.33c1.32-5.77,8.57-9.39,14.17-9.39c13.35,0,13.84,9.72,13.84,20.6v74.81H57.57v-73.33
		c0-2.31-0.99-4.95-3.79-4.95c-2.8,0-3.63,2.64-3.63,4.95v73.33H29.23v-94.25h20.93V296.23z"/>
	<path class="st0" d="M114.91,382.24V264.92h23.23v100.52h20.6v16.81H114.91z"/>
	<path class="st0" d="M212.63,362.14c0,14.17-11.53,21.26-24.72,21.26c-13.35,0-24.55-7.08-24.55-21.26v-54.05
		c0-14.17,11.21-21.26,24.55-21.26c13.18,0,24.72,7.08,24.72,21.26V362.14z M191.7,307.27c0-2.31-0.99-4.94-3.79-4.94
		c-2.8,0-3.62,2.64-3.62,4.94v55.7c0,2.31,0.82,4.95,3.62,4.95c2.8,0,3.79-2.64,3.79-4.95V307.27z"/>
	<path class="st0" d="M247.07,307.27c0-2.31-0.99-4.94-4.28-4.94c-3.3,0-4.12,2.64-4.12,4.94v5.44c0,16.48,29.33,12.85,29.33,41.85
		v7.58c0,14.17-11.54,21.26-25.21,21.26c-12.85,0-25.05-7.08-25.05-21.26v-15.65h20.93v16.48c0,2.31,0.82,4.95,4.12,4.95
		c3.3,0,4.28-2.64,4.28-4.95v-7.91c0-16.64-29.33-14.66-29.33-39.05v-7.91c0-14.17,12.19-21.26,25.05-21.26
		c13.68,0,25.21,7.08,25.21,21.26v12.69h-20.93V307.27z"/>
	<path class="st0" d="M317.59,264.92h30.81l14.01,117.32h-24.22l-2.64-31.97h-11.04l-3.62,31.97h-20.76L317.59,264.92z
		 M334.07,333.47l-3.13-48.12h-0.66l-3.79,48.12H334.07z"/>
	<path class="st0" d="M365.05,382.24V264.92h20.93v117.32H365.05z"/>
	<path class="st0" d="M392.07,308.09c0-14.17,11.21-21.26,24.55-21.26c13.18,0,24.72,7.08,24.72,21.26v55.03
		c0,6.59,0.99,12.85,1.48,19.12h-21.26l-1.15-9.56h-0.33c-2.8,7.58-7.91,10.71-14.01,10.71c-10.55,0-14.01-6.26-14.01-16.97v-20.27
		c0-23.73,28.34-14.66,28.34-35.1v-3.79c0-2.31-0.99-4.94-3.79-4.94c-2.8,0-3.63,2.64-3.63,4.94v13.51h-20.93V308.09z M413,362.96
		c0,2.31,0.83,4.95,3.63,4.95c2.8,0,3.79-2.64,3.79-4.95v-27.19l-3.79,2.64c-2.97,2.63-3.63,3.3-3.63,7.41V362.96z"/>
	<path class="st0" d="M467.37,296.39h0.33c3.3-6.26,5.6-9.56,14.01-9.56c7.42,0,11.04,2.14,13.51,9.72
		c3.63-6.26,5.93-9.72,14.34-9.72c13.18,0,14.5,10.38,14.5,17.47v77.94h-20.93v-73.33c0-2.31-0.99-4.95-3.79-4.95
		c-2.8,0-3.63,2.64-3.63,4.95v73.33h-20.93v-73.33c0-2.31-0.99-4.95-3.79-4.95c-2.8,0-3.63,2.64-3.63,4.95v73.33h-20.93v-94.25
		h20.93V296.39z"/>
	<path class="st0" d="M578.6,362.14c0,14.17-11.53,21.26-24.72,21.26c-13.35,0-24.55-7.08-24.55-21.26v-54.05
		c0-14.17,11.21-21.26,24.55-21.26c13.18,0,24.72,7.08,24.72,21.26V362.14z M557.67,307.27c0-2.31-0.99-4.94-3.79-4.94
		c-2.8,0-3.63,2.64-3.63,4.94v55.7c0,2.31,0.83,4.95,3.63,4.95c2.8,0,3.79-2.64,3.79-4.95V307.27z"/>
	<path class="st0" d="M613.04,307.27c0-2.31-0.99-4.94-4.28-4.94c-3.3,0-4.12,2.64-4.12,4.94v5.44c0,16.48,29.33,12.85,29.33,41.85
		v7.58c0,14.17-11.54,21.26-25.21,21.26c-12.85,0-25.05-7.08-25.05-21.26v-15.65h20.93v16.48c0,2.31,0.82,4.95,4.12,4.95
		c3.3,0,4.28-2.64,4.28-4.95v-7.91c0-16.64-29.33-14.66-29.33-39.05v-7.91c0-14.17,12.19-21.26,25.05-21.26
		c13.68,0,25.21,7.08,25.21,21.26v12.69h-20.93V307.27z"/>
</g>
</svg>
